<?xml version="1.0" encoding="UTF-8"?>
<!DOCTYPE svg PUBLIC "-//W3C//DTD SVG 1.1//EN" "http://www.w3.org/Graphics/SVG/1.1/DTD/svg11.dtd">
<!-- Creator: CorelDRAW (Versión OEM) -->
<svg xmlns="http://www.w3.org/2000/svg" xml:space="preserve" width="162.763mm" height="29.9378mm" version="1.1" style="shape-rendering:geometricPrecision; text-rendering:geometricPrecision; image-rendering:optimizeQuality; fill-rule:evenodd; clip-rule:evenodd"
viewBox="0 0 3752.85 690.28"
 xmlns:xlink="http://www.w3.org/1999/xlink"
 xmlns:xodm="http://www.corel.com/coreldraw/odm/2003">
 <defs>
  <style type="text/css">
   <![CDATA[
    .fil0 {fill:#373435}
    .fil2 {fill:#ED3237}
    .fil1 {fill:#373435;fill-rule:nonzero}
   ]]>
  </style>
 </defs>
 <g id="Capa_x0020_1">
  <metadata id="CorelCorpID_0Corel-Layer"/>
  <g id="_1772017872736">
   <path class="fil0" d="M3146.05 542.78l51.68 0 340.86 0 214.27 -542.78 -392.54 0 -200.4 507.64 -218.19 -202.77c150.84,-19.97 247.19,-59.42 283.98,-146.14 35.23,-83.05 -47.39,-152.14 -287.45,-158.26l0.27 -0.45 -49.92 0 -607.39 -0.01 -214.28 542.78 392.54 0 79.75 -201.99 217.35 201.99 389.47 0zm-1510.07 0.04l10.24 0 0.06 -0.08c251.74,-1.89 417.96,-49.46 450.11,-133.72 30.36,-79.53 -33.8,-121.87 -116.89,-144.16 115.61,-20.29 190.64,-53.08 210.87,-106.13 32.16,-84.29 -47.39,-152.14 -287.45,-158.26l0.27 -0.45 -49.92 0 -214.86 0 0.01 -0.01 -264.05 0 -407.56 254.33 190.53 288.45 478.64 0.04zm-82.6 -327.41l37.48 -94.97 85.93 0 14.93 0 -0.07 0.14c71.8,1.83 95.6,22.13 85.97,47.34 -9.6,25.21 -60.57,46.9 -135.88,47.46l-0.02 0.03 -3.06 0 -85.29 0zm-75.78 191.96l37.49 -94.97 85.64 0 14.93 0 -0.08 0.15c71.81,1.82 95.61,22.12 85.98,47.33 -9.6,25.22 -60.57,46.9 -135.88,47.46l-0.02 0.03 -3.07 0 -85 0zm1111.13 -191.96l37.49 -94.97 85.93 0 14.93 0 -0.07 0.14c71.8,1.83 95.6,22.13 85.97,47.34 -9.6,25.21 -60.57,46.9 -135.88,47.46l-0.02 0.03 -3.06 0 -85.29 0z"/>
   <path class="fil1" d="M2101.89 598.51l24.02 0 5.02 -11.54 -60.65 0 -5.02 11.54 24.01 0 -39.01 89.62 12.62 0 39.01 -89.62zm341.49 -11.54l-12.62 0 -44.03 101.16 12.61 0 44.04 -101.16zm315.34 57.16c15.39,-1.74 30.3,-13.82 36.61,-28.3 4.21,-9.66 3.52,-19.19 -2.77,-24.15 -6.07,-4.57 -15.67,-4.7 -24.65,-4.7l-15.29 0 -44.03 101.16 12.61 0 18.63 -42.79 5.23 0 11.16 42.79 15.29 0 -12.78 -44zm1.59 -45.88l3.35 0c12.49,0 26.52,2.28 19.63,18.11 -7.01,16.1 -22.02,18.51 -34.89,18.51l-4.03 0 15.94 -36.63zm311.44 89.89l54.33 0 5.02 -11.53 -41.73 0 16.64 -38.24 40.53 0 5.02 -11.54 -40.52 0 12.32 -28.31 41.73 0 5.02 -11.54 -54.34 0 -44.03 101.16zm453.53 -88.01c-1.24,-9.79 -8.1,-15.3 -19.37,-15.3 -15.29,0 -34.05,9.8 -41.18,26.17 -6.13,14.09 1.47,20.66 10.85,25.62l5.7 2.95c7.15,3.63 13.82,8.32 9.09,19.19 -4.61,10.6 -16.37,19.73 -27.23,19.73 -10.87,0 -16.22,-8.05 -11.24,-19.19l-13.92 2.68c-4.91,16.24 2.58,28.31 18.94,28.31 18.12,0 38.06,-13.14 46.06,-31.53 7.36,-16.9 0.07,-24.82 -11.84,-30.45l-6.01 -2.82c-5.26,-2.42 -11.23,-6.57 -7.78,-14.49 3.86,-8.86 15.1,-14.36 23.15,-14.36 7.65,0 11.08,3.22 12.1,9.53l12.69 -6.04z"/>
   <polygon class="fil2" points="652.75,542.78 1045.29,542.78 854.77,254.33 1262.32,0 869.78,0 740.19,80.87 686.78,0 294.23,0 462.23,254.33 -0,542.78 392.54,542.78 576.8,427.8 "/>
  </g>
 </g>
</svg>
